<svg width="291" height="71" viewBox="0 0 291 71" fill="none" xmlns="http://www.w3.org/2000/svg">
<path d="M97.3451 26.8666H89.0277V31.6794H95.6421V35.2211H89.0277V43.2794H84.9924V23.3002H97.3451V26.8666Z" fill="#82B000"/>
<path d="M111.499 43.2794L106.748 36.1219H105.391V43.2794H101.356V23.3002H109.328C113.906 23.3002 115.88 26.5458 115.88 29.8283C115.88 32.6666 113.881 35.4555 111.068 35.9492L116.226 43.2917H111.499V43.2794ZM105.391 26.8666V32.8641H108.612C110.87 32.8641 111.833 31.5066 111.833 29.9024C111.833 28.2981 110.821 26.8543 108.933 26.8543H105.391V26.8666Z" fill="#82B000"/>
<path d="M124.383 39.713H133.145V43.2794H120.36V23.3002H132.885V26.8666H124.395V31.6177H131.849V35.2458H124.395V39.713H124.383Z" fill="#82B000"/>
<path d="M141.61 39.713H150.372V43.2794H137.587V23.3002H150.113V26.8666H141.622V31.6177H149.076V35.2458H141.622V39.713H141.61Z" fill="#82B000"/>
<path d="M161.157 37.4794H165.193C165.217 38.8985 166.612 40.0832 168.475 40.0832C170.339 40.0832 171.462 39.096 171.462 37.6768C171.462 36.5785 170.647 35.7888 168.944 35.2705L166.513 34.5794C162.132 33.4194 161.355 30.7785 161.355 28.9768C161.355 25.4105 164.428 22.9424 168.253 22.9424C172.079 22.9424 174.917 25.2377 174.917 29.0262H170.882C170.882 27.6071 169.894 26.5088 168.154 26.5088C166.587 26.5088 165.403 27.5577 165.403 28.8905C165.403 29.3841 165.551 30.396 167.636 31.013L169.87 31.6547C172.881 32.5556 175.522 34.0858 175.522 37.4794C175.522 41.453 172.128 43.6249 168.364 43.6249C164.107 43.6249 161.17 40.9841 161.17 37.4794H161.157Z" fill="#82B000"/>
<path d="M191.959 43.2794L190.33 38.4913H182.852L181.26 43.2794H176.966L184.419 23.3002H188.763L196.192 43.2794H191.959ZM184.037 34.9866H189.146L186.591 27.4219L184.037 34.9866Z" fill="#82B000"/>
<path d="M222.082 43.2794H217.96L216.517 30.9019L211.642 41.0211H208.483L203.547 30.9019L202.103 43.2794H197.981L200.449 23.3002H203.868L210.038 36.4058L216.159 23.3002H219.639L222.07 43.2794H222.082Z" fill="#82B000"/>
<path d="M234.62 23.3002C239.149 23.3002 241.148 26.5458 241.148 29.8283C241.148 33.1109 239.149 36.2947 234.62 36.2947H230.498V43.2794H226.463V23.3002H234.608H234.62ZM234.41 32.753C236.36 32.753 237.076 31.2475 237.076 29.8283C237.076 28.4092 236.348 26.8666 234.472 26.8666H230.498V32.753H234.41Z" fill="#82B000"/>
<path d="M248.972 39.713H256.537V43.2794H244.937V23.3002H248.972V39.713Z" fill="#82B000"/>
<path d="M264.175 39.713H272.937V43.2794H260.152V23.3002H272.678V26.8666H264.188V31.6177H271.641V35.2458H264.188V39.713H264.175Z" fill="#82B000"/>
<path d="M276.232 37.4794H280.267C280.292 38.8985 281.686 40.0832 283.55 40.0832C285.413 40.0832 286.536 39.096 286.536 37.6768C286.536 36.5785 285.722 35.7888 284.019 35.2705L281.588 34.5794C277.207 33.4194 276.429 30.7785 276.429 28.9768C276.429 25.4105 279.502 22.9424 283.328 22.9424C287.153 22.9424 289.991 25.2377 289.991 29.0262H285.956C285.956 27.6071 284.969 26.5088 283.229 26.5088C281.662 26.5088 280.477 27.5577 280.477 28.8905C280.477 29.3841 280.625 30.396 282.711 31.013L284.944 31.6547C287.955 32.5556 290.596 34.0858 290.596 37.4794C290.596 41.453 287.202 43.6249 283.439 43.6249C279.181 43.6249 276.244 40.9841 276.244 37.4794H276.232Z" fill="#82B000"/>
<path d="M92.2731 4.1109V6.56664H89.0028V16.476H86.1892V6.57899H82.919V4.12324H92.2731V4.1109Z" fill="#241F21"/>
<path d="M101.294 4.1109H104.108V16.476H101.294V11.5892H97.2218V16.476H94.4082V4.1109H97.2218V9.05941H101.294V4.1109Z" fill="#241F21"/>
<path d="M110.13 14.0203H115.411V16.476H107.316V4.1109H115.251V6.56664H110.142V9.12111H114.634V11.6509H110.142V14.0203H110.13Z" fill="#241F21"/>
<path d="M83.6968 59.902C83.6968 54.213 88.1887 49.5483 93.964 49.5483C97.1232 49.5483 99.8751 50.8811 101.615 52.9666L98.2461 55.7803C97.1725 54.5339 95.667 53.7811 93.9517 53.7811C90.7308 53.7811 88.2627 56.57 88.2627 59.902C88.2627 63.2339 90.6691 66.1709 94.0874 66.1709C96.321 66.1709 98.7891 64.9245 98.7891 62.95H93.1619V59.2726H103.75C103.75 66.8373 99.5419 70.2309 94.2108 70.2309C88.0653 70.2309 83.6844 65.5292 83.6844 59.902H83.6968Z" fill="#241F21"/>
<path d="M107.538 62.7526V49.9062H112.092V62.4071C112.092 64.9245 113.684 65.9118 115.337 65.9118C116.991 65.9118 118.558 64.9245 118.558 62.4071V49.9062H123.112V62.7526C123.112 67.3679 119.459 70.2309 115.337 70.2309C111.216 70.2309 107.538 67.3556 107.538 62.7526Z" fill="#241F21"/>
<path d="M128.332 69.8854V49.9062H132.885V69.8854H128.332Z" fill="#241F21"/>
<path d="M146.25 49.9062C152.026 49.9062 155.357 54.2501 155.357 59.939C155.357 65.6279 152.026 69.8854 146.25 69.8854H138.365V49.9062H146.25ZM146.25 65.9118C149.237 65.9118 150.779 63.0365 150.779 59.939C150.779 56.8416 149.237 53.8799 146.25 53.8799H142.918V65.9118H146.25Z" fill="#241F21"/>
<path d="M164.292 65.9118H172.819V69.8854H159.738V49.9062H172.56V53.8799H164.292V58.0016H171.536V62.0862H164.292V65.9118Z" fill="#241F21"/>
<path d="M8.80259 1.67987L1.70685 18.5369V69.1326H65.5438V51.5228V39.1454V18.5369L58.4481 1.67987H8.80259Z" fill="#F7DBB5"/>
<path d="M28.8435 1.67987L25.3018 18.5369V27.9033H39.4809V18.5369L35.9392 1.67987H28.8435Z" fill="white"/>
<path d="M41.8255 29.0756V19.7092H64.4332V67.9479H2.81747V19.7092H25.4498L25.4251 29.0756H41.8255ZM9.51831 2.85219H28.6953L25.6349 17.3769H3.40981L9.51831 2.85219ZM27.6341 18.6726L30.966 2.85219H36.2847L39.6166 18.6726V26.7432H27.6464V18.6726H27.6341ZM38.5553 2.85219H57.7323L63.8408 17.3769H41.5787L38.543 2.85219H38.5553ZM38.0617 0.507507H8.07449L0.596191 18.2901V70.2926H66.6545V18.2901L59.1762 0.507507H38.0617Z" fill="#241F21"/>
<path d="M36.4575 56.7181H8.80265C8.18563 56.7181 7.69202 57.2487 7.69202 57.8904C7.69202 58.5321 8.18563 59.0628 8.80265 59.0628H36.4575C37.0746 59.0628 37.5682 58.5321 37.5682 57.8904C37.5682 57.2487 37.0746 56.7181 36.4575 56.7181Z" fill="#241F21"/>
<path d="M8.80265 51.5598H25.9682C26.5852 51.5598 27.0788 51.0291 27.0788 50.3874C27.0788 49.7457 26.5852 49.2151 25.9682 49.2151H8.80265C8.18563 49.2151 7.69202 49.7457 7.69202 50.3874C7.69202 51.0291 8.18563 51.5598 8.80265 51.5598Z" fill="#241F21"/>
<path d="M62.619 54.9041L65.6794 59.9513L70.4428 56.7181L67.3947 51.6709L72.1581 48.45L57.3619 40.6879L57.8432 58.1373L62.619 54.9041Z" fill="white"/>
<path d="M57.3619 40.6879L57.8432 58.1372L62.619 54.904L65.6794 59.9389L70.4551 56.7057L67.3947 51.6709L72.1704 48.4377L57.3743 40.6755L57.3619 40.6879ZM59.213 43.7483L68.5794 48.6598L66.4321 50.1036L64.939 51.1155L65.8892 52.6828L67.987 56.1504L66.1853 57.3721L64.0875 53.9045L63.1373 52.3372L61.6441 53.3368L59.4968 54.793L59.1883 43.7483H59.213Z" fill="#241F21"/>
<path d="M69.2707 38.7504L67.3826 37.9483L69.9494 31.2104L71.8375 32.0126L69.2707 38.7504Z" fill="#241F21"/>
<path fill-rule="evenodd" clip-rule="evenodd" d="M69.9676 40.3874L65.8063 38.6195L69.2524 29.5736L73.4137 31.3415L69.9676 40.3874ZM69.2707 38.7505L71.8375 32.0126L69.9494 31.2105L67.3826 37.9484L69.2707 38.7505Z" fill="white"/>
<path d="M72.8865 47.6356L71.924 45.7229L77.5635 42.576L78.5137 44.4765L72.8865 47.6356Z" fill="#241F21"/>
<path fill-rule="evenodd" clip-rule="evenodd" d="M72.3646 49.3438L70.2901 45.2213L78.0898 40.8692L80.1436 44.9767L72.3646 49.3438ZM72.8865 47.6356L78.5137 44.4764L77.5635 42.576L71.9239 45.7228L72.8865 47.6356Z" fill="white"/>
<path d="M53.1907 48.7092L44.5648 48.4747L44.6265 46.3151L53.2401 46.5496L53.1907 48.7092Z" fill="#241F21"/>
<path fill-rule="evenodd" clip-rule="evenodd" d="M54.3961 49.9765L43.296 49.6747L43.4281 45.048L54.5019 45.3495L54.3961 49.9765ZM53.1907 48.7092L53.2401 46.5496L44.6265 46.3152L44.5648 48.4747L53.1907 48.7092Z" fill="white"/>
<path d="M51.8215 61.9381L50.5751 60.2228L55.2397 56.4096L56.4861 58.1126L51.8215 61.9381Z" fill="#241F21"/>
<path fill-rule="evenodd" clip-rule="evenodd" d="M51.5922 63.722L48.8914 60.0051L55.4666 54.6302L58.1716 58.3262L51.5922 63.722ZM51.8214 61.9381L56.486 58.1126L55.2397 56.4096L50.575 60.2228L51.8214 61.9381Z" fill="white"/>
<path d="M56.3254 39.4168L52.3641 32.3705L54.1165 31.2722L58.0777 38.3185L56.3254 39.4168Z" fill="#241F21"/>
<path fill-rule="evenodd" clip-rule="evenodd" d="M55.884 41.1499L50.7119 31.9496L54.5579 29.5391L59.73 38.7394L55.884 41.1499ZM56.3254 39.4169L58.0778 38.3186L54.1165 31.2722L52.3642 32.3705L56.3254 39.4169Z" fill="white"/>
</svg>
