<svg xmlns="http://www.w3.org/2000/svg" width="21" height="22" viewBox="0 0 21 22" fill="#A9F9C6">
<path d="M16.25 9.00574C16.25 10.8026 15.6641 12.4823 14.6875 13.8104L19.6094 18.7714C20.1172 19.2401 20.1172 20.0604 19.6094 20.5292C19.1406 21.037 18.3203 21.037 17.8516 20.5292L12.8906 15.5682C11.5625 16.5839 9.88281 17.1307 8.125 17.1307C3.63281 17.1307 0 13.4979 0 9.00574C0 4.55261 3.63281 0.880737 8.125 0.880737C12.5781 0.880737 16.25 4.55261 16.25 9.00574ZM8.125 14.6307C10.1172 14.6307 11.9531 13.576 12.9688 11.8182C13.9844 10.0995 13.9844 7.95105 12.9688 6.19324C11.9531 4.47449 10.1172 3.38074 8.125 3.38074C6.09375 3.38074 4.25781 4.47449 3.24219 6.19324C2.22656 7.95105 2.22656 10.0995 3.24219 11.8182C4.25781 13.576 6.09375 14.6307 8.125 14.6307Z" fill="#A9F9C6"/>
</svg>