<svg width="291" height="81" viewBox="0 0 291 81" fill="none" xmlns="http://www.w3.org/2000/svg">
<rect x="43.2539" y="31.1786" width="27.542" height="27.3134" rx="2" fill="white"/>
<rect x="8.83771" y="0.400024" width="3.53492" height="7.06984" rx="1.76746" fill="#48E280"/>
<rect x="8.83771" y="14.5397" width="3.53492" height="7.06984" rx="1.76746" fill="#48E280"/>
<rect x="21.2096" y="9.23737" width="3.53492" height="7.06984" rx="1.76746" transform="rotate(90 21.2096 9.23737)" fill="#48E280"/>
<rect x="7.06989" y="9.23737" width="3.53492" height="7.06984" rx="1.76746" transform="rotate(90 7.06989 9.23737)" fill="#48E280"/>
<path fill-rule="evenodd" clip-rule="evenodd" d="M59.1066 58.721H69.0292C70.0054 58.721 70.7967 57.9297 70.7967 56.9536V49.2712H60.202L66.0005 53.7376L65.0663 54.9504L59.1066 50.3598V58.721ZM70.7967 47.7403V32.9462C70.7967 31.97 70.0054 31.1787 69.0292 31.1787H59.1066V42.8357C59.6169 41.8727 60.2722 40.9133 61.045 40.2541C62.1285 39.3298 63.4178 38.752 64.6785 38.6247C65.9318 38.4982 67.3166 38.8183 68.2525 39.9154C69.1884 41.0125 69.2863 42.4305 68.9638 43.6482C68.6394 44.873 67.8656 46.0552 66.7821 46.9795C66.4501 47.2627 66.0667 47.5158 65.6557 47.7403H70.7967ZM57.5757 31.1787H45.0218C44.0457 31.1787 43.2543 31.97 43.2543 32.9462V47.7403L51.0807 47.7403C50.6696 47.5158 50.2863 47.2627 49.9542 46.9795C48.8707 46.0552 48.0969 44.873 47.7725 43.6482C47.45 42.4305 47.548 41.0125 48.4838 39.9154C49.4197 38.8183 50.8045 38.4982 52.0579 38.6247C53.3185 38.752 54.6078 39.3298 55.6913 40.2541C56.4371 40.8903 57.0735 41.806 57.5757 42.7348V31.1787ZM43.2543 49.2712V56.9536C43.2543 57.9297 44.0457 58.721 45.0218 58.721H57.5757V50.14L51.3306 54.9504L50.3964 53.7376L56.1949 49.2712H43.2543ZM57.3839 47.5076C56.9353 48.0335 52.7009 47.3103 50.9478 45.8148C49.1947 44.3193 48.613 42.1229 49.6485 40.909C50.6841 39.6951 52.9447 39.9233 54.6978 41.4188C56.4509 42.9143 57.8325 46.9818 57.3839 47.5076ZM65.7886 45.8148C64.0355 47.3103 59.801 48.0335 59.3524 47.5076C58.9039 46.9818 60.2854 42.9143 62.0385 41.4188C63.7916 39.9233 66.0522 39.6951 67.0878 40.909C68.1233 42.1229 67.5416 44.3193 65.7886 45.8148Z" fill="#FF5D42"/>
<path fill-rule="evenodd" clip-rule="evenodd" d="M52.0532 16.7715H24.2157C19.7418 16.7715 16.2621 20.3754 16.2621 24.7251V72.4465C16.2621 76.9204 19.7418 80.4 24.2157 80.4H52.0532C56.4028 80.4 60.0068 76.9204 60.0068 72.4465V62.256H54.5583L46.1361 70.1015L46.1359 62.256H45.0217C42.0933 62.256 39.7193 59.882 39.7193 56.9536V32.9462C39.7193 30.0178 42.0933 27.6438 45.0217 27.6438H60.0068V24.7251C60.0068 20.3754 56.4028 16.7715 52.0532 16.7715ZM32.1693 72.4465C32.1693 71.4523 33.0392 70.4581 34.1577 70.4581H42.1112C43.1054 70.4581 44.0996 71.4523 44.0996 72.4465C44.0996 73.5649 43.1054 74.4349 42.1112 74.4349H34.1577C33.0392 74.4349 32.1693 73.5649 32.1693 72.4465Z" fill="#7495FF"/>
<path d="M281.831 52.7118C281.07 52.7118 280.239 52.6272 279.337 52.4581C278.463 52.289 277.604 52.0494 276.758 51.7394C275.912 51.4012 275.208 51.0207 274.644 50.598C274.08 50.147 273.756 49.6397 273.672 49.076C273.615 48.7942 273.615 48.4982 273.672 48.1882C273.756 47.85 273.897 47.5118 274.095 47.1736C274.292 46.8072 274.531 46.4267 274.813 46.0321C275.039 45.7221 275.292 45.5248 275.574 45.4402C275.856 45.3557 276.18 45.3698 276.547 45.4825C276.998 45.567 277.448 45.7221 277.899 45.9475C278.379 46.1448 278.844 46.3703 279.295 46.624C279.774 46.8494 280.267 47.0608 280.774 47.2581C281.282 47.4272 281.803 47.5118 282.338 47.5118C283.128 47.5118 283.734 47.399 284.156 47.1736C284.607 46.9199 284.833 46.5817 284.833 46.1589C284.833 45.8489 284.734 45.5952 284.537 45.3979C284.368 45.2007 284.114 45.0315 283.776 44.8906C283.466 44.7215 283.099 44.5806 282.677 44.4679C282.254 44.3551 281.789 44.2424 281.282 44.1297C280.802 43.9887 280.309 43.8478 279.802 43.7069C279.097 43.5096 278.421 43.2559 277.773 42.9459C277.124 42.6359 276.533 42.2413 275.997 41.7622C275.462 41.2549 275.039 40.6489 274.729 39.9443C274.419 39.2115 274.264 38.3237 274.264 37.2809C274.264 35.8998 274.588 34.7443 275.236 33.8142C275.884 32.8841 276.828 32.1795 278.069 31.7004C279.309 31.1931 280.817 30.9394 282.592 30.9394C283.099 30.9394 283.607 30.9676 284.114 31.0239C284.621 31.0803 285.115 31.179 285.594 31.3199C286.101 31.4608 286.594 31.6299 287.073 31.8272C287.553 32.0245 288.032 32.2641 288.511 32.5459C289.356 32.9405 289.793 33.476 289.821 34.1524C289.85 34.8288 289.61 35.5193 289.103 36.224C288.793 36.7031 288.469 37.0554 288.13 37.2809C287.792 37.4782 287.44 37.5345 287.073 37.45C286.622 37.3372 286.129 37.154 285.594 36.9004C285.086 36.6467 284.537 36.4071 283.945 36.1817C283.381 35.9562 282.818 35.8435 282.254 35.8435C281.775 35.8435 281.366 35.9139 281.028 36.0548C280.69 36.1676 280.436 36.3367 280.267 36.5622C280.098 36.7595 280.013 36.999 280.013 37.2809C280.013 37.6473 280.112 37.9432 280.309 38.1687C280.535 38.366 280.831 38.5351 281.197 38.676C281.563 38.8169 281.986 38.9437 282.465 39.0565C282.944 39.1692 283.466 39.2819 284.03 39.3947C284.791 39.5356 285.566 39.7329 286.355 39.9866C287.172 40.212 287.905 40.5502 288.553 41.0012C289.23 41.4521 289.765 42.0581 290.16 42.8191C290.582 43.5801 290.794 44.5806 290.794 45.8207C290.794 48.0473 290.019 49.7524 288.469 50.9362C286.918 52.1199 284.706 52.7118 281.831 52.7118Z" fill="#7495FF"/>
<path d="M262 52.754C260.027 52.754 258.321 52.4299 256.884 51.7817C255.475 51.1334 254.319 50.2879 253.417 49.2451C252.515 48.1741 251.839 46.9903 251.388 45.6939C250.965 44.3974 250.754 43.1009 250.754 41.8044C250.754 39.6906 251.233 37.8163 252.191 36.1817C253.15 34.547 254.474 33.2646 256.165 32.3345C257.856 31.3762 259.801 30.8971 262 30.8971C263.634 30.8971 265.043 31.1648 266.227 31.7003C267.439 32.2077 268.426 32.8841 269.187 33.7296C269.976 34.547 270.553 35.4348 270.92 36.393C271.314 37.3513 271.512 38.2673 271.512 39.141C271.512 40.6911 271.131 41.8467 270.37 42.6077C269.637 43.3405 268.693 43.7069 267.538 43.7069H257.476C257.532 44.4397 257.786 45.0597 258.237 45.567C258.716 46.0743 259.308 46.4689 260.013 46.7508C260.717 47.0326 261.464 47.1735 262.253 47.1735C262.93 47.1735 263.521 47.1453 264.029 47.089C264.536 47.0044 264.973 46.9058 265.339 46.793C265.706 46.6521 266.044 46.5253 266.354 46.4126C266.664 46.2716 266.932 46.1589 267.157 46.0743C267.411 45.9898 267.65 45.9334 267.876 45.9052C268.299 45.8771 268.679 46.0039 269.017 46.2857C269.384 46.5394 269.708 46.934 269.99 47.4695C270.187 47.7795 270.314 48.0754 270.37 48.3573C270.455 48.6391 270.497 48.921 270.497 49.2028C270.497 49.8792 270.145 50.4852 269.44 51.0207C268.764 51.5562 267.791 51.979 266.523 52.289C265.283 52.599 263.775 52.754 262 52.754ZM257.476 40.2402H264.156C264.607 40.2402 264.931 40.1697 265.128 40.0288C265.353 39.8597 265.466 39.5497 265.466 39.0987C265.466 38.5914 265.311 38.1546 265.001 37.7882C264.691 37.3936 264.268 37.0976 263.733 36.9004C263.226 36.6749 262.634 36.5621 261.957 36.5621C261.084 36.5621 260.308 36.7312 259.632 37.0695C258.956 37.4077 258.42 37.8586 258.026 38.4223C257.659 38.986 257.476 39.592 257.476 40.2402Z" fill="#7495FF"/>
<path d="M246.916 52.3736C245.761 52.3736 244.732 52.3031 243.83 52.1622C242.956 52.0494 242.195 51.824 241.547 51.4858C240.927 51.1475 240.42 50.6825 240.025 50.0906C239.63 49.4988 239.334 48.7378 239.137 47.8077C238.968 46.8494 238.884 45.6798 238.884 44.2988V24.767C238.884 24.2033 238.926 23.6819 239.01 23.2028C239.123 22.7237 239.405 22.3291 239.856 22.0191C240.307 21.709 241.04 21.554 242.054 21.554C243.069 21.554 243.788 21.709 244.21 22.0191C244.661 22.3291 244.943 22.7237 245.056 23.2028C245.169 23.6819 245.225 24.2033 245.225 24.767V44.0028C245.225 44.4538 245.239 44.8343 245.267 45.1443C245.324 45.4261 245.408 45.6516 245.521 45.8207C245.662 45.9898 245.845 46.1025 246.071 46.1589C246.296 46.2153 246.592 46.2435 246.958 46.2435C247.297 46.2435 247.635 46.2857 247.973 46.3703C248.339 46.4549 248.649 46.7085 248.903 47.1313C249.157 47.554 249.284 48.2587 249.284 49.2451C249.284 50.2597 249.157 50.9925 248.903 51.4435C248.649 51.8944 248.339 52.1622 247.973 52.2467C247.635 52.3313 247.282 52.3736 246.916 52.3736Z" fill="#7495FF"/>
<path d="M226.549 51.9931C225.168 51.9931 223.942 51.7253 222.871 51.1898C221.828 50.6262 220.954 49.8793 220.25 48.9492C219.573 47.9909 219.052 46.8917 218.686 45.6516C218.347 44.4115 218.192 43.0728 218.221 41.6354C218.221 40.2543 218.404 38.9438 218.77 37.7037C219.137 36.4354 219.658 35.3221 220.334 34.3638C221.039 33.3774 221.899 32.6164 222.913 32.0809C223.956 31.5172 225.168 31.2354 226.549 31.2354C227.789 31.2354 228.987 31.5172 230.143 32.0809C231.326 32.6446 232.369 33.4196 233.271 34.4061C234.173 35.3644 234.878 36.4776 235.385 37.7459C235.92 39.0142 236.188 40.353 236.188 41.7622C236.188 43.1714 235.92 44.5102 235.385 45.7785C234.878 47.0186 234.173 48.1037 233.271 49.0337C232.369 49.9638 231.34 50.6966 230.185 51.2321C229.029 51.7394 227.817 51.9931 226.549 51.9931ZM218.39 61.1248C217.375 61.1248 216.642 60.9698 216.191 60.6598C215.769 60.3779 215.501 59.9974 215.388 59.5183C215.304 59.0674 215.261 58.5741 215.261 58.0386V34.4061C215.261 33.8424 215.304 33.3351 215.388 32.8841C215.473 32.405 215.726 32.0104 216.149 31.7004C216.6 31.3904 217.333 31.2354 218.347 31.2354C219.221 31.2354 219.912 31.3622 220.419 31.6158C220.954 31.8695 221.335 32.2641 221.56 32.7996V57.9964C221.589 58.5319 221.546 59.0392 221.434 59.5183C221.321 59.9974 221.039 60.3779 220.588 60.6598C220.165 60.9698 219.433 61.1248 218.39 61.1248ZM225.661 46.0321C226.45 46.0321 227.155 45.8489 227.775 45.4825C228.395 45.0879 228.888 44.5665 229.255 43.9183C229.649 43.2701 229.847 42.5514 229.847 41.7622C229.847 40.9448 229.663 40.2261 229.297 39.6061C228.931 38.9579 228.437 38.4505 227.817 38.0841C227.197 37.7177 226.493 37.5345 225.704 37.5345C224.943 37.5345 224.238 37.7318 223.59 38.1264C222.97 38.4928 222.476 39.0001 222.11 39.6484C221.772 40.2684 221.603 40.973 221.603 41.7622C221.603 42.5514 221.786 43.2701 222.152 43.9183C222.519 44.5665 223.012 45.0879 223.632 45.4825C224.252 45.8489 224.928 46.0321 225.661 46.0321Z" fill="#7495FF"/>
<path d="M184.622 52.3736C183.607 52.3736 182.875 52.2185 182.424 51.9085C181.973 51.5985 181.705 51.2039 181.62 50.7248C181.536 50.2456 181.494 49.7242 181.494 49.1606V34.3638C181.494 33.8001 181.536 33.2928 181.62 32.8418C181.733 32.3627 182.015 31.9822 182.466 31.7004C182.917 31.3903 183.664 31.2353 184.707 31.2353C185.749 31.2353 186.51 31.4467 186.99 31.8695C187.469 32.2641 187.708 32.9264 187.708 33.8565L187.159 34.3215C187.215 34.1806 187.384 33.941 187.666 33.6028C187.948 33.2646 188.314 32.9123 188.765 32.5459C189.216 32.1795 189.738 31.8695 190.329 31.6158C190.949 31.334 191.612 31.1931 192.316 31.1931C193.246 31.1931 194.078 31.334 194.811 31.6158C195.572 31.8695 196.248 32.2641 196.84 32.7996C197.46 33.3069 197.996 33.9551 198.446 34.7443C198.841 34.1806 199.32 33.631 199.884 33.0955C200.448 32.56 201.11 32.109 201.871 31.7426C202.66 31.3763 203.534 31.1931 204.492 31.1931C206.127 31.1931 207.508 31.6158 208.635 32.4613C209.791 33.2787 210.664 34.4624 211.256 36.0126C211.848 37.5627 212.144 39.437 212.144 41.6353V49.2028C212.144 49.7383 212.088 50.2597 211.975 50.7671C211.89 51.2462 211.623 51.6408 211.172 51.9508C210.721 52.2326 209.974 52.3736 208.931 52.3736C207.888 52.3736 207.141 52.2185 206.69 51.9085C206.268 51.5985 206 51.2039 205.887 50.7248C205.803 50.2175 205.76 49.6961 205.76 49.1606V41.5931C205.76 40.7193 205.662 39.9866 205.464 39.3947C205.267 38.8028 204.957 38.3519 204.534 38.0418C204.14 37.7036 203.632 37.5345 203.012 37.5345C202.364 37.5345 201.814 37.6895 201.364 37.9996C200.913 38.2814 200.574 38.7324 200.349 39.3524C200.123 39.9443 200.011 40.7053 200.011 41.6353V49.2028C200.011 49.7665 199.94 50.302 199.799 50.8093C199.658 51.2885 199.348 51.683 198.869 51.9931C198.418 52.2749 197.685 52.4017 196.671 52.3736C195.656 52.3454 194.938 52.1763 194.515 51.8662C194.092 51.5562 193.838 51.1616 193.754 50.6825C193.669 50.1752 193.627 49.6679 193.627 49.1606V41.5931C193.627 40.7193 193.528 39.9866 193.331 39.3947C193.134 38.7746 192.838 38.3096 192.443 37.9996C192.049 37.6895 191.527 37.5345 190.879 37.5345C190.174 37.5345 189.597 37.7177 189.146 38.0841C188.695 38.4505 188.356 38.9437 188.131 39.5638C187.934 40.1557 187.835 40.8321 187.835 41.5931V49.2028C187.835 49.7665 187.779 50.2879 187.666 50.7671C187.581 51.2462 187.314 51.6408 186.863 51.9508C186.412 52.2326 185.665 52.3736 184.622 52.3736Z" fill="#7495FF"/>
<path d="M174.963 52.3313C173.92 52.3313 173.145 52.1481 172.638 51.7817C172.159 51.4153 171.919 50.9644 171.919 50.4289L172.342 49.7102C172.173 49.992 171.849 50.3443 171.37 50.7671C170.89 51.1617 170.27 51.5281 169.509 51.8663C168.748 52.1763 167.804 52.3313 166.677 52.3313C165.38 52.3313 164.14 52.0495 162.957 51.4858C161.801 50.9221 160.772 50.147 159.87 49.1606C158.968 48.1459 158.25 47.0045 157.714 45.7362C157.207 44.4679 156.953 43.1291 156.953 41.7199C156.953 40.3389 157.207 39.0283 157.714 37.7882C158.25 36.5199 158.968 35.4066 159.87 34.4484C160.8 33.4619 161.843 32.6868 162.999 32.1232C164.154 31.5595 165.38 31.2776 166.677 31.2776C167.72 31.2776 168.607 31.4326 169.34 31.7427C170.073 32.0245 170.679 32.3627 171.158 32.7573C171.665 33.1519 172.046 33.5324 172.3 33.8988L171.961 33.3069C171.933 32.6305 172.159 32.1232 172.638 31.7849C173.145 31.4186 173.934 31.2354 175.005 31.2354C176.02 31.2354 176.739 31.3904 177.161 31.7004C177.612 32.0104 177.88 32.4191 177.965 32.9264C178.077 33.4337 178.134 33.9692 178.134 34.5329V49.1183C178.134 49.6538 178.077 50.1752 177.965 50.6825C177.88 51.1898 177.612 51.5985 177.161 51.9085C176.739 52.1904 176.006 52.3313 174.963 52.3313ZM167.607 46.0321C168.34 46.0321 169.002 45.8489 169.594 45.4825C170.214 45.0879 170.693 44.5665 171.031 43.9183C171.398 43.2701 171.581 42.5514 171.581 41.7622C171.581 40.9448 171.398 40.2261 171.031 39.6061C170.665 38.9579 170.172 38.4505 169.552 38.0841C168.932 37.6896 168.255 37.4923 167.522 37.4923C166.705 37.4923 165.972 37.6896 165.324 38.0841C164.704 38.4787 164.197 39.0001 163.802 39.6484C163.436 40.2966 163.252 41.0294 163.252 41.8467C163.252 42.6077 163.436 43.3123 163.802 43.9606C164.197 44.5806 164.718 45.0879 165.366 45.4825C166.043 45.8489 166.79 46.0321 167.607 46.0321Z" fill="#7495FF"/>
<path d="M144.359 52.7963C142.865 52.7963 141.555 52.6131 140.427 52.2467C139.328 51.8803 138.384 51.4435 137.595 50.9361C136.834 50.4006 136.228 49.8792 135.777 49.3719C135.326 48.8646 135.016 48.4841 134.847 48.2304C134.368 47.6104 134.072 47.0749 133.959 46.6239C133.846 46.1448 133.903 45.6657 134.128 45.1865C134.382 44.7074 134.804 44.186 135.396 43.6223C135.988 43.115 136.538 42.8472 137.045 42.8191C137.581 42.7627 138.102 42.8895 138.609 43.1995C139.117 43.5096 139.61 43.9464 140.089 44.5101C140.765 45.3275 141.428 45.9052 142.076 46.2434C142.752 46.5535 143.457 46.7085 144.19 46.7085C145.12 46.7085 145.909 46.5958 146.557 46.3703C147.206 46.1448 147.699 45.7925 148.037 45.3134C148.375 44.806 148.544 44.1719 148.544 43.4109C148.544 42.7909 148.305 42.2976 147.826 41.9312C147.375 41.5367 146.755 41.1985 145.965 40.9166C145.204 40.6348 144.345 40.367 143.387 40.1134C142.457 39.8315 141.526 39.5074 140.596 39.141C139.948 38.9155 139.328 38.6337 138.736 38.2955C138.144 37.9573 137.581 37.5768 137.045 37.154C136.51 36.7312 136.045 36.2239 135.65 35.6321C135.284 35.0402 134.988 34.3638 134.762 33.6028C134.565 32.8418 134.466 31.9681 134.466 30.9816C134.466 29.3188 134.875 27.8391 135.692 26.5426C136.51 25.2461 137.637 24.2315 139.074 23.4987C140.54 22.7377 142.217 22.3572 144.105 22.3572C145.374 22.3572 146.473 22.47 147.403 22.6955C148.361 22.9209 149.164 23.1887 149.813 23.4987C150.461 23.8087 150.968 24.1188 151.335 24.4288C151.729 24.7106 151.997 24.9361 152.138 25.1052C152.927 25.838 153.364 26.4721 153.448 27.0077C153.533 27.515 153.237 28.2337 152.561 29.1638C151.856 30.1502 151.151 30.6998 150.447 30.8125C149.77 30.9253 148.995 30.6857 148.122 30.0938C147.783 29.7838 147.445 29.502 147.107 29.2483C146.769 28.9946 146.36 28.7974 145.881 28.6564C145.43 28.4873 144.824 28.4028 144.063 28.4028C143.612 28.4028 143.189 28.4732 142.795 28.6142C142.4 28.7269 142.062 28.896 141.78 29.1215C141.498 29.3469 141.273 29.6288 141.104 29.967C140.935 30.277 140.85 30.6293 140.85 31.0239C140.85 31.6722 141.061 32.1936 141.484 32.5881C141.935 32.9827 142.513 33.3068 143.218 33.5605C143.95 33.786 144.754 34.0115 145.627 34.2369C146.529 34.4342 147.445 34.6738 148.375 34.9556C149.221 35.2375 150.038 35.5898 150.827 36.0125C151.616 36.4071 152.321 36.9144 152.941 37.5345C153.561 38.1545 154.054 38.9296 154.421 39.8597C154.815 40.7898 155.013 41.9312 155.013 43.2841C155.013 44.9752 154.689 46.4266 154.04 47.6386C153.392 48.8505 152.532 49.8369 151.461 50.5979C150.39 51.3589 149.235 51.9085 147.995 52.2467C146.755 52.6131 145.543 52.7963 144.359 52.7963Z" fill="#7495FF"/>
<path d="M113.972 51.5376C113.467 51.5376 113.097 51.4564 112.862 51.294C112.628 51.1497 112.483 50.9513 112.429 50.6988C112.375 50.4463 112.348 50.1667 112.348 49.86V34.2482C112.348 33.6349 112.465 33.211 112.7 32.9765C112.952 32.742 113.403 32.6248 114.053 32.6248H124.605C124.912 32.6248 125.182 32.6608 125.417 32.733C125.669 32.7871 125.868 32.9314 126.012 33.1659C126.156 33.3823 126.228 33.7521 126.228 34.2752C126.228 34.7803 126.147 35.1501 125.985 35.3846C125.841 35.6191 125.642 35.7634 125.39 35.8175C125.155 35.8716 124.885 35.8986 124.578 35.8986H115.622V40.4442H121.791C122.098 40.4442 122.359 40.4803 122.576 40.5524C122.792 40.6066 122.963 40.7328 123.09 40.9312C123.216 41.1297 123.279 41.4634 123.279 41.9323C123.279 42.3833 123.216 42.717 123.09 42.9334C122.963 43.1319 122.783 43.2581 122.549 43.3122C122.314 43.3483 122.044 43.3664 121.737 43.3664H115.622V48.2366H124.605C124.912 48.2366 125.182 48.2727 125.417 48.3448C125.669 48.399 125.868 48.5433 126.012 48.7777C126.156 49.0122 126.228 49.382 126.228 49.8871C126.228 50.3921 126.147 50.7619 125.985 50.9964C125.841 51.2309 125.642 51.3752 125.39 51.4293C125.155 51.5015 124.885 51.5376 124.578 51.5376H113.972Z" fill="#7495FF"/>
<path d="M107.402 51.5105C106.897 51.5105 106.527 51.4383 106.293 51.294C106.058 51.1497 105.914 50.9513 105.86 50.6988C105.806 50.4282 105.779 50.1486 105.779 49.86V34.2482C105.779 33.9596 105.806 33.689 105.86 33.4365C105.932 33.1839 106.076 32.9855 106.293 32.8412C106.527 32.6969 106.906 32.6248 107.429 32.6248C107.934 32.6248 108.295 32.6969 108.511 32.8412C108.746 32.9855 108.89 33.1839 108.944 33.4365C109.016 33.689 109.053 33.9686 109.053 34.2752V49.8871C109.053 50.1757 109.016 50.4463 108.944 50.6988C108.89 50.9513 108.746 51.1497 108.511 51.294C108.277 51.4383 107.907 51.5105 107.402 51.5105ZM95.5511 51.5105C95.046 51.5105 94.6762 51.4383 94.4418 51.294C94.2253 51.1497 94.081 50.9513 94.0088 50.6988C93.9547 50.4282 93.9277 50.1486 93.9277 49.86V34.2482C93.9277 33.9596 93.9547 33.689 94.0088 33.4365C94.081 33.1839 94.2343 32.9855 94.4688 32.8412C94.7033 32.6969 95.0731 32.6248 95.5781 32.6248C96.1012 32.6248 96.471 32.6969 96.6875 32.8412C96.922 32.9855 97.0663 33.1839 97.1204 33.4365C97.1745 33.689 97.2016 33.9686 97.2016 34.2752V49.8871C97.2016 50.1757 97.1655 50.4463 97.0933 50.6988C97.0392 50.9513 96.8949 51.1497 96.6604 51.294C96.444 51.4383 96.0742 51.5105 95.5511 51.5105ZM96.3357 43.3664V40.4442H106.212L106.184 43.3664H96.3357Z" fill="#7495FF"/>
<path d="M90.1329 32.5977C90.4035 32.5977 90.638 32.6248 90.8364 32.6789C91.0529 32.733 91.2242 32.8683 91.3505 33.0847C91.4767 33.2832 91.5399 33.6078 91.5399 34.0588C91.5399 34.5097 91.4767 34.8434 91.3505 35.0599C91.2242 35.2583 91.0529 35.3846 90.8364 35.4387C90.6199 35.4748 90.3764 35.4928 90.1059 35.4928H85.1274V49.9142C85.1274 50.2208 85.0913 50.5004 85.0192 50.7529C84.965 50.9874 84.8207 51.1768 84.5862 51.3211C84.3698 51.4654 84 51.5376 83.4769 51.5376C82.9899 51.5376 82.6291 51.4564 82.3946 51.2941C82.1601 51.1498 82.0158 50.9604 81.9617 50.7259C81.9076 50.4733 81.8805 50.1937 81.8805 49.8871V35.4928H76.848C76.5954 35.4928 76.3609 35.4658 76.1445 35.4116C75.928 35.3575 75.7476 35.2313 75.6033 35.0328C75.4771 34.8344 75.4139 34.5097 75.4139 34.0588C75.4139 33.6078 75.4771 33.2832 75.6033 33.0847C75.7296 32.8683 75.901 32.733 76.1174 32.6789C76.3519 32.6248 76.5954 32.5977 76.848 32.5977H90.1329Z" fill="#7495FF"/>
<path d="M199.352 76.2017C198.847 76.2017 198.477 76.1205 198.243 75.9581C198.008 75.8138 197.864 75.6154 197.81 75.3629C197.756 75.1104 197.729 74.8398 197.729 74.5512V58.9123C197.729 58.6056 197.756 58.3351 197.81 58.1006C197.882 57.848 198.026 57.6496 198.243 57.5053C198.477 57.361 198.856 57.2889 199.379 57.2889C199.884 57.2889 200.245 57.361 200.462 57.5053C200.696 57.6496 200.84 57.848 200.894 58.1006C200.967 58.3531 201.003 58.6327 201.003 58.9393V64.5401L207.902 57.83C208.191 57.5234 208.452 57.3159 208.687 57.2077C208.921 57.0995 209.165 57.0904 209.417 57.1806C209.67 57.2528 209.941 57.4332 210.229 57.7218C210.698 58.1727 210.933 58.5696 210.933 58.9123C210.933 59.237 210.725 59.6158 210.31 60.0487L203.167 66.7317L210.391 73.4419C210.842 73.8748 211.059 74.2626 211.041 74.6053C211.023 74.948 210.779 75.3358 210.31 75.7687C209.968 76.0574 209.67 76.2377 209.417 76.3099C209.183 76.4001 208.948 76.382 208.714 76.2558C208.497 76.1475 208.254 75.9401 207.983 75.6335L201.003 68.8692V74.5782C201.003 74.8669 200.967 75.1374 200.894 75.39C200.84 75.6425 200.696 75.8409 200.462 75.9852C200.245 76.1295 199.875 76.2017 199.352 76.2017Z" fill="#48E280"/>
<path d="M182.681 76.1746C182.176 76.1746 181.806 76.1024 181.571 75.9581C181.355 75.8138 181.211 75.6154 181.138 75.3629C181.084 75.0923 181.057 74.8127 181.057 74.5241V58.9122C181.057 58.6236 181.093 58.3621 181.165 58.1276C181.238 57.8751 181.382 57.6766 181.598 57.5323C181.833 57.37 182.203 57.2888 182.708 57.2888H188.498C189.328 57.2888 190.112 57.4241 190.852 57.6947C191.609 57.9472 192.286 58.344 192.881 58.8852C193.476 59.4083 193.945 60.0757 194.288 60.8874C194.649 61.6811 194.829 62.61 194.829 63.6743C194.829 64.3777 194.721 65.0812 194.505 65.7847C194.288 66.4701 193.963 67.1105 193.531 67.7057C193.116 68.283 192.584 68.779 191.934 69.1939C191.285 69.6087 190.518 69.8793 189.634 70.0056H184.331V74.5511C184.331 74.8398 184.295 75.1103 184.223 75.3629C184.169 75.6154 184.024 75.8138 183.79 75.9581C183.574 76.1024 183.204 76.1746 182.681 76.1746ZM194.207 75.7687C193.684 76.1295 193.251 76.2647 192.908 76.1746C192.584 76.0844 192.259 75.7958 191.934 75.3087L187.389 68.4363L191.041 67.9493L194.64 73.4148C194.892 73.7755 195.046 74.0822 195.1 74.3347C195.154 74.5872 195.109 74.8217 194.965 75.0382C194.82 75.2546 194.568 75.4981 194.207 75.7687ZM184.331 66.7587H188.904C189.228 66.7587 189.544 66.7046 189.851 66.5964C190.175 66.4701 190.464 66.2807 190.717 66.0282C190.969 65.7576 191.168 65.433 191.312 65.0542C191.474 64.6573 191.555 64.1883 191.555 63.6472C191.555 62.9978 191.429 62.4477 191.177 61.9967C190.924 61.5277 190.563 61.176 190.094 60.9415C189.643 60.689 189.093 60.5627 188.444 60.5627H184.331V66.7587Z" fill="#48E280"/>
<path d="M169.679 76.4181C168.38 76.4181 167.162 76.1746 166.026 75.6876C164.908 75.1825 163.916 74.4971 163.05 73.6313C162.184 72.7474 161.508 71.7373 161.021 70.6009C160.534 69.4465 160.29 68.2109 160.29 66.8941C160.29 65.5412 160.525 64.2786 160.994 63.1061C161.481 61.9156 162.139 60.8784 162.969 59.9946C163.816 59.0927 164.791 58.3892 165.891 57.8841C166.991 57.3791 168.173 57.1265 169.435 57.1265C170.752 57.1265 171.97 57.3791 173.088 57.8841C174.224 58.3711 175.216 59.0566 176.064 59.9404C176.912 60.8243 177.579 61.8525 178.066 63.0249C178.553 64.1794 178.797 65.433 178.797 66.7859C178.797 68.1026 178.562 69.3472 178.094 70.5197C177.625 71.6741 176.966 72.7023 176.118 73.6042C175.271 74.4881 174.297 75.1825 173.196 75.6876C172.114 76.1746 170.941 76.4181 169.679 76.4181ZM169.544 73.1172C170.373 73.1172 171.149 72.9548 171.87 72.6302C172.592 72.3055 173.223 71.8545 173.764 71.2773C174.324 70.7001 174.756 70.0327 175.063 69.2751C175.37 68.4995 175.523 67.6697 175.523 66.7859C175.523 65.902 175.361 65.0813 175.036 64.3237C174.729 63.548 174.297 62.8716 173.737 62.2944C173.196 61.6991 172.565 61.2392 171.843 60.9145C171.14 60.5898 170.373 60.4275 169.544 60.4275C168.732 60.4275 167.965 60.5898 167.244 60.9145C166.522 61.2392 165.882 61.6991 165.323 62.2944C164.781 62.8716 164.358 63.548 164.051 64.3237C163.744 65.0993 163.591 65.92 163.591 66.7859C163.591 67.6517 163.744 68.4724 164.051 69.248C164.376 70.0237 164.809 70.7001 165.35 71.2773C165.891 71.8545 166.513 72.3055 167.217 72.6302C167.938 72.9548 168.714 73.1172 169.544 73.1172Z" fill="#48E280"/>
<path d="M141.432 76.1205C141.071 76.1205 140.783 76.0573 140.566 75.9311C140.35 75.7868 140.187 75.6244 140.079 75.4441C139.989 75.2637 139.926 75.1104 139.89 74.9841L134.587 59.4534C134.406 58.8762 134.379 58.4433 134.505 58.1547C134.632 57.848 135.001 57.5955 135.615 57.3971C136.03 57.2528 136.363 57.1896 136.616 57.2077C136.868 57.2257 137.076 57.3339 137.238 57.5324C137.418 57.7127 137.572 58.0014 137.698 58.3982L141.594 70.195L145.085 58.5064C145.139 58.326 145.211 58.1457 145.301 57.9653C145.409 57.7669 145.572 57.6045 145.788 57.4782C146.005 57.352 146.302 57.2889 146.681 57.2889C147.114 57.2889 147.439 57.361 147.655 57.5053C147.871 57.6496 148.025 57.812 148.115 57.9923C148.223 58.1547 148.295 58.308 148.331 58.4523L151.822 70.2762L155.745 58.4252C155.871 58.0104 156.016 57.7037 156.178 57.5053C156.358 57.3069 156.584 57.1987 156.854 57.1806C157.125 57.1445 157.459 57.1987 157.855 57.343C158.27 57.4873 158.568 57.6496 158.748 57.83C158.929 57.9923 159.019 58.2088 159.019 58.4794C159.019 58.7319 158.956 59.0566 158.83 59.4534L153.553 75.0111C153.517 75.1194 153.445 75.2637 153.337 75.4441C153.247 75.6244 153.093 75.7868 152.877 75.9311C152.661 76.0573 152.363 76.1205 151.984 76.1205C151.605 76.1205 151.308 76.0393 151.091 75.877C150.875 75.7146 150.712 75.5342 150.604 75.3358C150.496 75.1374 150.424 74.9931 150.388 74.9029L146.708 62.9979L143.028 74.8759C142.992 75.0021 142.92 75.1645 142.812 75.3629C142.722 75.5613 142.568 75.7417 142.352 75.904C142.135 76.0483 141.829 76.1205 141.432 76.1205Z" fill="#48E280"/>
<path d="M131.522 57.2618C131.793 57.2618 132.027 57.2889 132.226 57.343C132.442 57.3971 132.613 57.5324 132.74 57.7489C132.866 57.9473 132.929 58.272 132.929 58.7229C132.929 59.1739 132.866 59.5076 132.74 59.724C132.613 59.9224 132.442 60.0487 132.226 60.1028C132.009 60.1389 131.766 60.1569 131.495 60.1569H126.517V74.5783C126.517 74.8849 126.481 75.1645 126.408 75.417C126.354 75.6515 126.21 75.8409 125.976 75.9852C125.759 76.1295 125.389 76.2017 124.866 76.2017C124.379 76.2017 124.018 76.1205 123.784 75.9582C123.549 75.8139 123.405 75.6245 123.351 75.39C123.297 75.1375 123.27 74.8579 123.27 74.5512V60.1569H118.237C117.985 60.1569 117.75 60.1299 117.534 60.0758C117.317 60.0216 117.137 59.8954 116.993 59.697C116.866 59.4985 116.803 59.1739 116.803 58.7229C116.803 58.272 116.866 57.9473 116.993 57.7489C117.119 57.5324 117.29 57.3971 117.507 57.343C117.741 57.2889 117.985 57.2618 118.237 57.2618H131.522Z" fill="#48E280"/>
<path d="M102.647 76.2016C102.142 76.2016 101.773 76.1204 101.538 75.9581C101.304 75.8138 101.159 75.6154 101.105 75.3629C101.051 75.1103 101.024 74.8307 101.024 74.5241V58.9122C101.024 58.2989 101.141 57.8751 101.376 57.6406C101.628 57.4061 102.079 57.2888 102.729 57.2888H113.281C113.587 57.2888 113.858 57.3249 114.092 57.397C114.345 57.4512 114.543 57.5955 114.688 57.83C114.832 58.0464 114.904 58.4162 114.904 58.9393C114.904 59.4444 114.823 59.8141 114.661 60.0486C114.516 60.2831 114.318 60.4274 114.065 60.4815C113.831 60.5357 113.56 60.5627 113.254 60.5627H104.298V65.1083H110.467C110.773 65.1083 111.035 65.1443 111.251 65.2165C111.468 65.2706 111.639 65.3969 111.766 65.5953C111.892 65.7937 111.955 66.1274 111.955 66.5964C111.955 67.0474 111.892 67.3811 111.766 67.5975C111.639 67.7959 111.459 67.9222 111.224 67.9763C110.99 68.0124 110.719 68.0304 110.413 68.0304H104.298V72.9007H113.281C113.587 72.9007 113.858 72.9367 114.092 73.0089C114.345 73.063 114.543 73.2073 114.688 73.4418C114.832 73.6763 114.904 74.0461 114.904 74.5511C114.904 75.0562 114.823 75.426 114.661 75.6605C114.516 75.895 114.318 76.0393 114.065 76.0934C113.831 76.1655 113.56 76.2016 113.254 76.2016H102.647Z" fill="#48E280"/>
<path d="M83.5096 76.1746C83.0226 76.1746 82.6618 76.0934 82.4274 75.931C82.2109 75.7867 82.0666 75.5883 81.9944 75.3358C81.9403 75.0833 81.9133 74.8127 81.9133 74.5241V58.8311C81.9133 58.5605 81.9493 58.308 82.0215 58.0735C82.0936 57.839 82.247 57.6496 82.4815 57.5053C82.734 57.361 83.1038 57.2888 83.5908 57.2888C84.1319 57.2888 84.5017 57.352 84.7001 57.4782C84.9166 57.5864 85.115 57.7488 85.2954 57.9652L94.3324 70.6008V58.8311C94.3324 58.5605 94.3685 58.308 94.4406 58.0735C94.5128 57.839 94.6661 57.6496 94.9006 57.5053C95.1351 57.361 95.4959 57.2888 95.9829 57.2888C96.4879 57.2888 96.8487 57.37 97.0652 57.5323C97.2997 57.6766 97.444 57.8751 97.4981 58.1276C97.5702 58.3801 97.6063 58.6597 97.6063 58.9663V74.5511C97.6063 74.8398 97.5612 75.1103 97.471 75.3629C97.3989 75.5973 97.2365 75.7867 96.984 75.931C96.7495 76.0934 96.3797 76.1746 95.8747 76.1746C95.4778 76.1746 95.1622 76.1385 94.9277 76.0663C94.7112 75.9942 94.5128 75.8409 94.3324 75.6064L85.1601 62.9978V74.5511C85.1601 74.8398 85.124 75.1103 85.0519 75.3629C84.9978 75.5973 84.8535 75.7867 84.619 75.931C84.3845 76.0934 84.0147 76.1746 83.5096 76.1746Z" fill="#48E280"/>
</svg>
